<svg xmlns="http://www.w3.org/2000/svg" width="1720.1148" height="1555.484" viewBox="0 0 1720.1148 1555.484"><defs><style>.a{isolation:isolate;}.b,.r,.z{fill:#e1dde7;}.c,.f{fill:#d3d3d3;}.d{fill:#f2f2f2;}.e,.g{fill:#bcbcbc;}.e,.f{stroke:#fff;stroke-miterlimit:10;}.e{stroke-width:4px;}.h{fill:#5c407b;}.i{fill:#b984f9;}.j{fill:#282f6c;}.k{fill:#660708;}.l{fill:#45258f;}.m{fill:#fff;}.n{fill:#e2e2e2;}.o{fill:#ffb3c5;}.p{fill:#0b090a;}.aj,.q,.u{fill:#ea94ad;}.q{opacity:0.65;}.ad,.aj,.al,.am,.an,.q,.r,.u{mix-blend-mode:multiply;}.s{fill:#f5f3f4;}.al,.an,.t{fill:#e25a74;}.u{opacity:0.68;}.v{fill:#222951;}.w{fill:#93b8bd;}.x{fill:#ff7446;}.y{fill:#1d2349;}.z{opacity:0.38;}.aa{fill:#271798;}.ab,.ad{fill:#001653;}.ac,.am{fill:#472a6a;}.ad{opacity:0.18;}.ae{fill:#333e82;}.af{fill:#f36b80;}.ag{fill:#9cb9bd;}.ah{fill:#2c377c;}.ai{fill:#f99662;}.aj,.am{opacity:0.4;}.ak{fill:#161a1d;}.an{opacity:0.61;}.ao{fill:#dc7a63;}</style></defs><g class="a"><path class="b" d="M1871.71,1118.73l-120.6539-2.581-.1546,817.1342h237.3371V1532.6839C1988.2389,1485.3242,1921.5581,1146.3943,1871.71,1118.73Z" transform="translate(-1711.8225 -446.1622)"/><path class="c" d="M27.1473,829.6271H255.5792a0,0,0,0,1,0,0v657.2144a0,0,0,0,1,0,0H9.9212a0,0,0,0,1,0,0V846.8532A17.2261,17.2261,0,0,1,27.1473,829.6271Z"/><path class="c" d="M1861.4386,1115.9364l-135.4432-.0453a14.1727,14.1727,0,0,0-14.1729,14.1729v48.947a14.1731,14.1731,0,0,0,14.1729,14.173h165.5734C1881.438,1153.0712,1870.9883,1123.6156,1861.4386,1115.9364Z" transform="translate(-1711.8225 -446.1622)"/><path class="d" d="M1722.789,1217.7425a10.1339,10.1339,0,0,0-10.1341,10.1339v8.0113a10.1341,10.1341,0,0,0,10.1341,10.1341h180.8031c-2.02-9.7228-4.0718-19.1825-6.1441-28.2793Z" transform="translate(-1711.8225 -446.1622)"/><rect class="e" x="20.4144" y="1486.7493" width="528.3764" height="66.7347"/><rect class="f" x="0.9583" y="1486.7493" width="250.458" height="66.6188"/><path class="g" d="M2089.4491,1118.7649l-228.0186-2.8244s84.3477,369.3837,84.3477,416.7434v400.5992h294.1037V1532.6839C2239.8819,1483.5473,2178.3259,1122.1136,2089.4491,1118.7649Z" transform="translate(-1711.8225 -446.1622)"/><path class="h" d="M2148.715,1449.3521l6.3447,54.9295a13.9156,13.9156,0,0,0,13.3847,12.312l36.4151,1.1489a13.9159,13.9159,0,0,0,14.2424-15.67l-6.9073-54.121a13.9158,13.9158,0,0,0-13.0448-12.1337l-35.8529-1.9567A13.9153,13.9153,0,0,0,2148.715,1449.3521Z" transform="translate(-1711.8225 -446.1622)"/><path class="h" d="M2150.4476,1464.3528c3.5044-2.16,60.3272,1.9627,64.2507,3.2142l-2.5037-19.6158a13.9158,13.9158,0,0,0-13.0448-12.1337l-35.8529-1.9567a13.9149,13.9149,0,0,0-14.5819,15.4913Z" transform="translate(-1711.8225 -446.1622)"/><path class="i" d="M1981.0209,1524.7216a20.6565,20.6565,0,0,1-20.5905-18.4275c-5.52-50.7567-18.07-142.3183-35.2676-233.3128l-2.0058-10.5875h155.1817a42.28,42.28,0,0,1,41.25,34.1168c17.8345,89.6866,25.3954,190.0651,27.2883,218.6874l.6276,9.5236Z" transform="translate(-1711.8225 -446.1622)"/><path class="j" d="M1969.3109,1505.33c-6.4336-59.1106-19.5757-150.4106-35.3773-234.0055l144.401,0a33.21,33.21,0,0,1,32.5,26.9208c15.2018,76.4746,23.6011,164.1331,27.1322,217.5466H1981.0227A11.714,11.714,0,0,1,1969.3109,1505.33Z" transform="translate(-1711.8225 -446.1622)"/><path class="i" d="M1963.8631,1459.9771c2.137,16.4923,3.9692,31.7732,5.4474,45.3524a11.7153,11.7153,0,0,0,11.7122,10.4615h156.9435c-1.0542-15.9528-2.5443-34.9622-4.5188-55.8139Z" transform="translate(-1711.8225 -446.1622)"/><path class="h" d="M2047.6363,1302.0219a33.2112,33.2112,0,0,1,32.5008,26.9218c12.5607,63.19,15.2179,78.1721,19.5817,131.0052l38.2474,55.8421c-3.5308-53.4135-11.93-141.0712-27.1311-217.5451a33.2118,33.2118,0,0,0-32.5008-26.9219h-144.4c1.9177,10.1427,3.7946,20.4,5.6262,30.6979Z" transform="translate(-1711.8225 -446.1622)"/><path class="d" d="M2064.1435,1341.2751H1956.98a2.2325,2.2325,0,1,1,0-4.4649h107.1636a2.2325,2.2325,0,1,1,0,4.4649Z" transform="translate(-1711.8225 -446.1622)"/><path class="d" d="M2061.1668,1327.88H1954.0032a2.2325,2.2325,0,1,1,0-4.465h107.1636a2.2325,2.2325,0,1,1,0,4.465Z" transform="translate(-1711.8225 -446.1622)"/><path class="h" d="M2142.9023,1570.5519h-157.67a6.6529,6.6529,0,1,1,0-13.3057h157.67a6.6529,6.6529,0,0,1,0,13.3057Z" transform="translate(-1711.8225 -446.1622)"/><path class="h" d="M1985.2321,1565.8706h157.67a6.6349,6.6349,0,0,1,5.0657,2.341,6.6528,6.6528,0,0,0-5.0657-10.9654h-157.67a6.6532,6.6532,0,0,0-5.0662,10.9654A6.6361,6.6361,0,0,1,1985.2321,1565.8706Z" transform="translate(-1711.8225 -446.1622)"/><path class="h" d="M2209.1766,1379.5117l-68.1415,2.6181c-1.5878.061-2.99-2.8663-3.1306-6.5376s1.0319-6.6974,2.62-6.7583l68.1408-2.6189c1.5881-.061,2.99,2.8663,3.1309,6.5376S2210.7644,1379.45,2209.1766,1379.5117Z" transform="translate(-1711.8225 -446.1622)"/><path class="j" d="M2145.863,1426.2627c-12.9447-15.8339,10.459-33.0642-2.4859-48.898q30.5938-1.1762,61.1878-2.3514c12.5409,15.85-11.2672,33.0954,1.2741,48.9448Q2175.8512,1425.1109,2145.863,1426.2627Z" transform="translate(-1711.8225 -446.1622)"/><path class="h" d="M2140.8552,1377.4524l68.1415-2.619c.877-.0334,1.6967.8443,2.2793,2.2548a12.7784,12.7784,0,0,0,.52-4.3356c-.1412-3.6713-1.5428-6.5986-3.1309-6.5376l-68.1408,2.6189c-1.5881.0609-2.7612,3.0871-2.62,6.7583a12.7793,12.7793,0,0,0,.8513,4.2829C2139.2284,1378.4237,2139.9783,1377.4858,2140.8552,1377.4524Z" transform="translate(-1711.8225 -446.1622)"/><path class="d" d="M2200.3243,1380.3017l-47.4009,1.8214a1.2683,1.2683,0,1,1-.0973-2.5348l47.4-1.8216a1.2684,1.2684,0,0,1,.0977,2.535Z" transform="translate(-1711.8225 -446.1622)"/><path class="d" d="M2199.4649,1419.5973l-47.4006,1.8214a1.2684,1.2684,0,1,1-.0973-2.5349l47.4-1.8215a1.2684,1.2684,0,1,1,.0974,2.535Z" transform="translate(-1711.8225 -446.1622)"/><path class="d" d="M2191.4617,1387.4963l-39.2888,1.51a1.2687,1.2687,0,0,1-.0977-2.5356l39.2892-1.5094a1.2684,1.2684,0,1,1,.0973,2.535Z" transform="translate(-1711.8225 -446.1622)"/><path class="d" d="M2198.2276,1391.8051l-35.9938,1.3838a1.2684,1.2684,0,0,1-.0977-2.5349l35.9941-1.3831a1.268,1.268,0,1,1,.0974,2.5342Z" transform="translate(-1711.8225 -446.1622)"/><path class="g" d="M27.7048,333.335H334.5687a25.5065,25.5065,0,0,1,25.5065,25.5065V567.9643A25.5062,25.5062,0,0,1,334.569,593.47H27.7049A25.5062,25.5062,0,0,1,2.1987,567.9643V358.8411A25.5061,25.5061,0,0,1,27.7048,333.335Z"/><path class="k" d="M51.5422,333.335H369.9187a25.9439,25.9439,0,0,1,25.9439,25.9439V567.5266A25.9439,25.9439,0,0,1,369.9187,593.47H51.5424a25.9441,25.9441,0,0,1-25.9441-25.9441V359.2789A25.9439,25.9439,0,0,1,51.5422,333.335Z"/><rect class="g" x="80.6564" y="593.336" width="33.0344" height="76.4787"/><rect class="l" x="80.6564" y="593.336" width="33.0344" height="11.3556"/><rect class="g" x="301.0598" y="593.336" width="33.0347" height="78.9092"/><rect class="l" x="301.0598" y="593.336" width="33.0347" height="11.3556"/><path class="m" d="M1811.1475,921.3877a26.7675,26.7675,0,0,1-6.2823,9.1143,29.7115,29.7115,0,0,1-9.6884,6.0761,33.4223,33.4223,0,0,1-12.358,2.2173h-22.4169v-57.479h22.4169a34.0046,34.0046,0,0,1,12.358,2.1763,29.201,29.201,0,0,1,9.6884,6.0351,26.8938,26.8938,0,0,1,6.2823,9.0733,28.5669,28.5669,0,0,1,2.2168,11.2905v.1646A28.8552,28.8552,0,0,1,1811.1475,921.3877Zm-11.003-11.3315a18.743,18.743,0,0,0-1.2729-6.98,16.4045,16.4045,0,0,0-3.5308-5.5015,15.68,15.68,0,0,0-5.46-3.5718,18.968,18.968,0,0,0-7.0616-1.2729h-9.7714v34.6518h9.7714a19.5179,19.5179,0,0,0,7.0616-1.2319,15.1749,15.1749,0,0,0,5.46-3.5308,16.5755,16.5755,0,0,0,3.5308-5.4194,18.3286,18.3286,0,0,0,1.2729-6.98Z" transform="translate(-1711.8225 -446.1622)"/><path class="m" d="M1849.083,938.7954v-4.7627a17.3394,17.3394,0,0,1-5.5019,4.065,18.1113,18.1113,0,0,1-7.8008,1.519,19.5225,19.5225,0,0,1-5.8711-.8623,13.7689,13.7689,0,0,1-4.8028-2.5864,12.38,12.38,0,0,1-3.2441-4.229,13.3317,13.3317,0,0,1-1.19-5.7891v-.1641a13.811,13.811,0,0,1,1.3135-6.2407,11.98,11.98,0,0,1,3.6542-4.352,16.4179,16.4179,0,0,1,5.584-2.5865,27.9432,27.9432,0,0,1,7.1846-.8623,30.7882,30.7882,0,0,1,5.8711.4927,36.9583,36.9583,0,0,1,4.8857,1.314v-.7388a7.4841,7.4841,0,0,0-2.3808-5.9946q-2.3834-2.0516-7.0625-2.0528a29.3132,29.3132,0,0,0-6.3633.6163,42.8029,42.8029,0,0,0-5.7891,1.7651l-3.12-9.5249a49.0015,49.0015,0,0,1,7.5547-2.5454,39.7638,39.7638,0,0,1,9.5244-.9854q10.2642,0,14.9444,5.0088t4.6806,13.959v25.5371Zm.2461-17.7363a19.1106,19.1106,0,0,0-3.6543-1.19,19.7039,19.7039,0,0,0-4.3105-.4517,11.134,11.134,0,0,0-6.3223,1.56,5.121,5.121,0,0,0-2.3,4.5161v.164a4.6106,4.6106,0,0,0,1.8887,3.9414,8.0764,8.0764,0,0,0,4.9267,1.396,11.0365,11.0365,0,0,0,7.1026-2.1347,6.8124,6.8124,0,0,0,2.6689-5.584Z" transform="translate(-1711.8225 -446.1622)"/><path class="m" d="M1892.2734,938.8364a19.646,19.646,0,0,1-5.5009.6983,20.49,20.49,0,0,1-5.2149-.6162,9.2916,9.2916,0,0,1-4.0234-2.1758,10.4336,10.4336,0,0,1-2.627-4.0645,18.238,18.238,0,0,1-.9443-6.3637v-20.857h-5.2559V894.7832h5.2559v-11.25h12.4805v11.25H1896.79v10.6743h-10.3466v18.8037q0,4.2708,4.0244,4.27a12.7121,12.7121,0,0,0,6.1582-1.56v10.0176A19.3757,19.3757,0,0,1,1892.2734,938.8364Z" transform="translate(-1711.8225 -446.1622)"/><path class="m" d="M1931.77,938.7954v-4.7627a17.3394,17.3394,0,0,1-5.5019,4.065,18.1113,18.1113,0,0,1-7.8008,1.519,19.5225,19.5225,0,0,1-5.8711-.8623,13.7685,13.7685,0,0,1-4.8027-2.5864,12.3793,12.3793,0,0,1-3.2442-4.229,13.3317,13.3317,0,0,1-1.19-5.7891v-.1641a13.811,13.811,0,0,1,1.3135-6.2407,11.98,11.98,0,0,1,3.6543-4.352,16.4171,16.4171,0,0,1,5.584-2.5865,27.9418,27.9418,0,0,1,7.1845-.8623,30.7874,30.7874,0,0,1,5.8711.4927,36.96,36.96,0,0,1,4.8858,1.314v-.7388a7.4842,7.4842,0,0,0-2.3809-5.9946q-2.3833-2.0516-7.0625-2.0528a29.3132,29.3132,0,0,0-6.3633.6163,42.8017,42.8017,0,0,0-5.789,1.7651l-3.12-9.5249a49.0015,49.0015,0,0,1,7.5547-2.5454,39.7638,39.7638,0,0,1,9.5244-.9854q10.2642,0,14.9444,5.0088t4.6806,13.959v25.5371Zm.2461-17.7363a19.1106,19.1106,0,0,0-3.6543-1.19,19.7039,19.7039,0,0,0-4.3105-.4517,11.1345,11.1345,0,0,0-6.3223,1.56,5.121,5.121,0,0,0-2.3,4.5161v.164a4.6106,4.6106,0,0,0,1.8887,3.9414,8.0768,8.0768,0,0,0,4.9267,1.396,11.0365,11.0365,0,0,0,7.1026-2.1347,6.8124,6.8124,0,0,0,2.6689-5.584Z" transform="translate(-1711.8225 -446.1622)"/><path class="m" d="M2001.8115,933.7866a27.3217,27.3217,0,0,1-5.2148,3.2432,27.0076,27.0076,0,0,1-6.1992,2.0532,37.4259,37.4259,0,0,1-7.5547.6978,29.76,29.76,0,0,1-11.7422-2.2994,28.3346,28.3346,0,0,1-15.5186-15.6835,30.27,30.27,0,0,1-2.2177-11.5777v-.164a29.9656,29.9656,0,0,1,2.2177-11.5372,29.663,29.663,0,0,1,6.1582-9.4428,28.5437,28.5437,0,0,1,9.4434-6.4048,30.7286,30.7286,0,0,1,12.1523-2.34,38.0455,38.0455,0,0,1,7.3487.6572,30.6966,30.6966,0,0,1,6.0351,1.8061,26.2794,26.2794,0,0,1,5.01,2.792,34.0337,34.0337,0,0,1,4.27,3.6128l-8.0469,9.2788a30.4857,30.4857,0,0,0-6.8564-4.7627,17.4727,17.4727,0,0,0-7.8418-1.7241,16.0191,16.0191,0,0,0-6.6924,1.396,15.8378,15.8378,0,0,0-5.2959,3.8594,17.9842,17.9842,0,0,0-3.4492,5.7065,19.3788,19.3788,0,0,0-1.2314,6.9385v.1646a19.7054,19.7054,0,0,0,1.2314,6.9794,18.2718,18.2718,0,0,0,3.4082,5.7476,15.802,15.802,0,0,0,12.0293,5.3374,17.6106,17.6106,0,0,0,8.334-1.8061,32.3283,32.3283,0,0,0,6.7744-4.9268l8.0469,8.1289A41.5927,41.5927,0,0,1,2001.8115,933.7866Z" transform="translate(-1711.8225 -446.1622)"/><path class="m" d="M2040.9785,938.7954v-4.7627a17.3394,17.3394,0,0,1-5.5019,4.065,18.1113,18.1113,0,0,1-7.8008,1.519,19.5225,19.5225,0,0,1-5.8711-.8623,13.7676,13.7676,0,0,1-4.8027-2.5864,12.3793,12.3793,0,0,1-3.2442-4.229,13.3317,13.3317,0,0,1-1.19-5.7891v-.1641a13.811,13.811,0,0,1,1.3135-6.2407,11.98,11.98,0,0,1,3.6543-4.352,16.4174,16.4174,0,0,1,5.5839-2.5865,27.9432,27.9432,0,0,1,7.1846-.8623,30.7874,30.7874,0,0,1,5.8711.4927,36.9542,36.9542,0,0,1,4.8857,1.314v-.7388a7.4841,7.4841,0,0,0-2.3808-5.9946q-2.3833-2.0516-7.0625-2.0528a29.3132,29.3132,0,0,0-6.3633.6163,42.8029,42.8029,0,0,0-5.7891,1.7651l-3.12-9.5249a49.0015,49.0015,0,0,1,7.5547-2.5454,39.7638,39.7638,0,0,1,9.5244-.9854q10.2642,0,14.9444,5.0088t4.6806,13.959v25.5371Zm.2461-17.7363a19.1106,19.1106,0,0,0-3.6543-1.19,19.7039,19.7039,0,0,0-4.3105-.4517,11.1342,11.1342,0,0,0-6.3223,1.56,5.121,5.121,0,0,0-2.3,4.5161v.164a4.6106,4.6106,0,0,0,1.8887,3.9414,8.0766,8.0766,0,0,0,4.9267,1.396,11.0365,11.0365,0,0,0,7.1026-2.1347,6.8124,6.8124,0,0,0,2.6689-5.584Z" transform="translate(-1711.8225 -446.1622)"/><path class="m" d="M2084.1689,938.8364a19.6455,19.6455,0,0,1-5.5009.6983,20.49,20.49,0,0,1-5.2149-.6162,9.2928,9.2928,0,0,1-4.0234-2.1758,10.4336,10.4336,0,0,1-2.627-4.0645,18.24,18.24,0,0,1-.9443-6.3637v-20.857h-5.2559V894.7832h5.2559v-11.25h12.4805v11.25h10.3466v10.6743h-10.3466v18.8037q0,4.2708,4.0244,4.27a12.7118,12.7118,0,0,0,6.1582-1.56v10.0176A19.3757,19.3757,0,0,1,2084.1689,938.8364Z" transform="translate(-1711.8225 -446.1622)"/><path class="n" d="M3398.9022,1248.6158H3099.5249v33.0352h299.3773a16.5176,16.5176,0,0,0,16.5175-16.5176h0A16.5177,16.5177,0,0,0,3398.9022,1248.6158Z" transform="translate(-1711.8225 -446.1622)"/><path class="n" d="M3415.42,1137.1366h-180.057a16.5178,16.5178,0,0,0-16.5176,16.5176h0a16.5176,16.5176,0,0,0,16.5176,16.5169H3415.42a16.5175,16.5175,0,0,0,16.5176-16.5169h0A16.5177,16.5177,0,0,0,3415.42,1137.1366Z" transform="translate(-1711.8225 -446.1622)"/><path class="o" d="M3337.04,1125.94s6.9345,13.0991,18.57,18.3086,26.2537,2.7735,28.9135,15.0306-72.0654,1.79-72.0654,1.79,3.6408-30.553,3.7225-35.6311-1.6179-23.582-1.6179-23.582l16.8818-.987Z" transform="translate(-1711.8225 -446.1622)"/><path class="o" d="M3235.0054,1124.9324s-.0713.793-.0713,2.1165c-.0007,3.973.6339,12.7245,5.7283,19.1826,6.7926,8.6118,6.8334,19.3245-.3433,21.1549s-24.2881-.5856-24.2881-.5856-3.87-8.1927-1.227-30.0759,4.1751-45.883,4.1751-45.883l19.4984-3.71Z" transform="translate(-1711.8225 -446.1622)"/><path class="h" d="M3331.3442,834.404c1.111,14.6092,9.4069,124.5626,9.05,146.4956-.3218,19.85.055,109.6674.18,137.1273.0252,5.544-29.3558,5.1019-29.847.7015-3.6133-32.3484-29.6032-278.3865-32.4674-277.7228-10.14,2.3476-33.4172,261.5189-33.04,280.1664.0959,4.7577-31.6566,6.7212-31.7636,1.522-.9156-44.1842-22.8776-185.6879-4.317-298.6489,3.1666-19.2733,15.1628-72.7377,19.2-72.64l87.0409-10.24C3319.2008,741.2569,3331.2624,833.3346,3331.3442,834.404Z" transform="translate(-1711.8225 -446.1622)"/><path class="j" d="M3238.826,1134.2361s7.2333,11.9612,8.9262,16.9523,1.3288,17.4035,0,18.6817c-11.6967,11.253-33.8712,1.1259-33.8712,1.1259s-1.525-8.2529-2.2949-18.3807-.3359-19.5646,2.2949-19.5646,3.0915,5.3114,9.0934,3.811S3232.6705,1132.7356,3238.826,1134.2361Z" transform="translate(-1711.8225 -446.1622)"/><path class="j" d="M3314.4067,1139.4939s-.6681,4.8574-2.3373,13.134a42.7916,42.7916,0,0,0,0,15.8324s69.4533-1.08,72.1249-3.9581.7513-12.5037,0-13.3138-9.6834-3.0589-14.3587-6.117-20.7016-14.7526-25.8777-13.8534-7.3462,5.7574-17.1961,7.017S3316.7439,1136.9754,3314.4067,1139.4939Z" transform="translate(-1711.8225 -446.1622)"/><path class="b" d="M3311.4451,1157.2185c24.986,4.1988,52.2928.9207,72.7492-6.03-37.3544,9.7-68.0166,6.5539-65.9,6.6595C3318.2012,1157.84,3310.9859,1157.1768,3311.4451,1157.2185Z" transform="translate(-1711.8225 -446.1622)"/><path class="p" d="M3313.6033,551.0651s20.1576-1.4076,15.7982-21.9078-15.4326-20.2226-13.154-31.5771,10.7915-6.24,2.9726-33.7255-80.5575-20.3189-84.5468,3.5259-17.4139,18.2116-24.9986,24.9681c-13.6475,12.1586-1.07,67.6135,19.6032,58.6546s20.6436-15.5975,23.4156,1.2679,26.3957,8.56,38.0345,11.1222S3314.7322,561.8535,3313.6033,551.0651Z" transform="translate(-1711.8225 -446.1622)"/><path class="o" d="M3416.4336,783.8257c.8524-.6414,11.247,7.9252,12.8678,7.6673s1.337-1.7.848-2.9876c0,0-12.8374-11.3183-19.1618-13.1265s-18.4215,3.61-20.5752.7476c-1.9427-2.5817-49.6107-180.4708-49.6107-180.4708l-28.0976,20.2434s22.13,73.2846,24.88,82.49c4.3342,14.5028,33.7092,77.2281,34.4865,83.3689s1.7012,8.6482,10.4594,12.6279,19.537,6.5993,21.3236,3.0135-8.3227-3.1867-8.044-5.1576,9.1632-4.0547,13.1436-1.1823,13.5,13.9655,16.0977,11.1036-11.9887-13.6661-11.3408-14.1528,12.41,10.4659,14.4487,10.2668,2.29-2.8441-.05-4.82S3415.5818,784.4663,3416.4336,783.8257Z" transform="translate(-1711.8225 -446.1622)"/><path class="q" d="M3332.0865,624.28c-.914-5.0023-.2043-13.0515-1.9322-20.9536l-17.45,12.5725s22.13,73.2846,24.88,82.49c4.3348,14.5028,33.7092,77.2281,34.4865,83.3689.1234.9788.2512,1.8638.4132,2.6784l.0052-.0008s3.8727-7.3729-1.1005-22.454c-3.0827-9.3475-22.2549-57.8353-32.2089-95.1251A229.3585,229.3585,0,0,1,3332.0865,624.28Z" transform="translate(-1711.8225 -446.1622)"/><path class="d" d="M3303.0607,555.2457s16.2375,3.1391,28.2634,14.041,17.7148,47.1453,17.7148,47.1453,1.9159,5.4076-30.3033,10.2879S3303.0607,555.2457,3303.0607,555.2457Z" transform="translate(-1711.8225 -446.1622)"/><path class="r" d="M3303.147,555.2457c32.1745,17.2916,29.1335,53.2429,30.718,68.625-3.9388.9408-8.895,1.9047-15.1294,2.8492C3286.5164,631.6,3301.0037,554.0935,3303.147,555.2457Z" transform="translate(-1711.8225 -446.1622)"/><path class="s" d="M3322.41,578.2292s5.3686,36.5663,6.3021,55.6069c.2474,5.0431-6.8825,16.6436-7.5721,29.2484-1.9152,34.983.16,86.14-2.9868,91.0934-9.0161,14.1959-77.3152,10.2022-92.3739,3.6266-15.1472-6.613,1.1474-32.4079-.96-65.6-3.1963-50.338-11.8446-113.0659-5.4586-123.12,10.5976-16.6848,36.5734-16.5131,36.5734-16.5131l47.0416,2.5022S3320.0837,561.2657,3322.41,578.2292Z" transform="translate(-1711.8225 -446.1622)"/><path class="r" d="M3250.904,572.49c-.7209-8.7582-8.0842-15.7309-16.7881-15.3508a37.764,37.764,0,0,0-8.1644,4.7712c-.4392.648-.865,1.3536-1.2976,2.1109a80.3729,80.3729,0,0,0-7.5253,18.0284c-.6889,22.3247,4.7169,66.8173,7.3752,105.3975,3.3309-13.5078,11.5837-45.1446,18.6668-53.1318C3248.7756,627.9948,3251.84,583.8546,3250.904,572.49Z" transform="translate(-1711.8225 -446.1622)"/><path class="o" d="M3292.3086,519.0881s-.3321,24.0849,1.4462,29.4992,9.3981,6.5532,9.3981,6.5532,8.7508,24.19-13.2372,32.97-35.1874-35.4891-35.1874-35.4891,6.1474.019,7.4324-.4251c5.5165-1.9054,5.3367-46.1215,5.3367-46.1215Z" transform="translate(-1711.8225 -446.1622)"/><path class="q" d="M3267.4974,506.0746s.0133,3.22-.0766,7.96c6.0449,19.604,17.471,30.4627,25.8525,32.3526-1.2329-7.8865-.9647-27.2991-.9647-27.2991Z" transform="translate(-1711.8225 -446.1622)"/><path class="o" d="M3226.4621,624.6346l-39.0489-9.965s-20.3456,66.5213-19.8737,76.1461c.2563,5.2293-.518,97.01-1.9761,99.4042-1.8639,3.06-14.433-1.1481-20.55,1.2693s-17.7869,14.9384-17.7869,14.9384c-.36,1.3288-.5009,2.7906,1.137,2.89,1.638.0981,11.1446-9.4442,12.0556-8.89s-8.5419,8.5323-10.6777,10.7269-1.626,4.803.4221,4.8023,12.6836-12.0526,13.3754-11.632-12.7675,12.6011-9.9019,15.1947,11.2538-9.3773,14.9347-12.6248,12.726-2.043,13.1956-.1085-9.6284,2.5259-7.5,5.92,12.5981-.2683,20.9253-5.0862,9.0027-7.402,9.1751-13.59,13.9157-70.6252,16.81-85.4825C3203.5376,696.4355,3226.4621,624.6346,3226.4621,624.6346Z" transform="translate(-1711.8225 -446.1622)"/><path class="s" d="M3230.5353,557.3757c8.6416-1.3515,14.8975,8.9384,14.4241,17.6724-.9007,16.6153-7.66,42.4722-10.075,52.5974-3.65,15.3081-54.99-5.1215-51.2309-18.2338S3215.0538,559.7972,3230.5353,557.3757Z" transform="translate(-1711.8225 -446.1622)"/><path class="o" d="M3263.9807,493.7313a23.8625,23.8625,0,0,1,1.61-12.902c2.2132-5.1992,6.2924-11.8929,13.2886-14.8782,12.2622-5.2311,23.6935-1.8475,28.4253,14.2123s-.8093,41.8833-8.13,49.9592C3292.2685,537.7405,3269.1427,528.1942,3263.9807,493.7313Z" transform="translate(-1711.8225 -446.1622)"/><path class="o" d="M3267.4164,494.3237s-6.7866-9.9276-10.6355-3.979.0707,19.7972,7.6568,20.3252S3267.4164,494.3237,3267.4164,494.3237Z" transform="translate(-1711.8225 -446.1622)"/><ellipse class="k" cx="1577.2163" cy="181.4328" rx="38.713" ry="19.3561"/><path class="o" d="M2995.5123,763.1242s-16.5116-24.21-22.3856-27.1468,14.5334-16.098,14.5334-16.098l26.3511,34.98Z" transform="translate(-1711.8225 -446.1622)"/><path class="o" d="M3093.7647,1232.0834s1.4982,10.1144-9.3661,15.36-20.6043,10.49-20.6043,16.4841,67.434,3.7464,67.434,0-12.7371-35.5908-12.7371-35.5908Z" transform="translate(-1711.8225 -446.1622)"/><path class="o" d="M3171.3147,1233.5816v21.3541s24.7258,16.8587,47.5789,16.8587c0,0,18.3568.657,18.3568-4.167s-12.7705-13.6347-28.2119-21.1942-14.7549-24.963-14.7549-24.963l-22.9689,3.87Z" transform="translate(-1711.8225 -446.1622)"/><polygon class="l" points="1371.312 115.088 1377.447 104.08 1394.062 101.266 1399.938 110.54 1371.312 115.088"/><path class="k" d="M3080.6478,680.9929s-10.4853-.3745-16.4789,14.2361-15.7351,71.181-26.5993,74.9273-29.5966-26.5989-29.5966-26.5989l-18.7315,12.7375s29.2212,77.175,56.57,74.1778,35.59-90.2871,40.8354-109.3938S3080.6478,680.9929,3080.6478,680.9929Z" transform="translate(-1711.8225 -446.1622)"/><path class="b" d="M3180.495,918.1372c-7.3068-36.7139-125.92-24.7593-124.194,4.4961,0,0,3.7463,71.93,11.24,151.353s22.4778,161.8427,22.4778,161.8427h32.807s-18.0574-254.9242-9.2376-263.744a12.018,12.018,0,0,1,7.9066-3.7084c6.7472-.434,12.56,4.7778,13.4527,11.4789l34.4941,258.9713,29.9711-2.9978S3187.8025,954.8517,3180.495,918.1372Z" transform="translate(-1711.8225 -446.1622)"/><path class="r" d="M3057.1742,938.0064c13.1793,4.0272,86.3134,16.8208,126.4866,7.1805-1.1073-12.6264-2.176-22.0779-3.1658-27.05-7.3068-36.7139-125.92-24.7593-124.194,4.4961C3056.3092,922.7753,3056.5559,927.6051,3057.1742,938.0064Z" transform="translate(-1711.8225 -446.1622)"/><path class="r" d="M3106.6638,1123.43c2.9273,48.3,6.5747,84.95,10.1545,112.3992h6.0071s-18.0574-254.9242-9.2376-263.744C3113.5878,972.085,3097.7317,976.0505,3106.6638,1123.43Z" transform="translate(-1711.8225 -446.1622)"/><path class="k" d="M3104.2544,675.748s-20.6131,5.2449-23.6066,5.2449-44.9518,194.0615-40.8309,213.5428a136.34,136.34,0,0,0,13.1123,35.2157s101.1522,19.1067,137.866-3.3718c0,0-4.4954-97.0313-4.4954-130.7479s26.9739-97.4055,17.9824-110.143-44.2065-19.8559-44.2065-19.8559Z" transform="translate(-1711.8225 -446.1622)"/><path class="t" d="M3145.84,647.2755c-1.8743,0-40.0863-1.8731-54.6969,8.6167s-11.4269,19.6686-5.62,25.4753,44.312,8.86,44.312,8.86-20.3352-17.4436-16.2463-21.5326,42.9467-6.4469,45.3918-.0081c.668,1.7583-23.2693,21.5407-23.2693,21.5407s32.9608-2.3983,43.0478-9.2354c11.3244-7.6758,10.8458-18.8407-.3262-27.3473C3172.561,649.174,3145.84,647.2755,3145.84,647.2755Z" transform="translate(-1711.8225 -446.1622)"/><path class="t" d="M3135.7119,690.2272s48.47-24.8864,26.2991-33.978-62.5247,6.38-58.5376,16.2694,26.3615,17.7086,26.3615,17.7086-20.3352-17.444-16.2471-21.5326,42.9475-6.4469,45.3926-.0081C3159.6484,670.4448,3135.7119,690.2272,3135.7119,690.2272Z" transform="translate(-1711.8225 -446.1622)"/><path class="o" d="M3108.3753,655.143s4.6849,15.1658,4.6849,19.01,11.05,16.5807,20.0416,16.5807,26.5466-22.0386,26.5466-22.0386l-10.4377-53.2321Z" transform="translate(-1711.8225 -446.1622)"/><path class="u" d="M3151.8371,628.8559l-2.6264-13.3934-40.8354,39.6805s4.6849,15.1658,4.6849,19.0091a8.6441,8.6441,0,0,0,1.7093,3.9763,23.3025,23.3025,0,0,0,4.0963-1.0765C3130.9526,672.6926,3146.137,650.2433,3151.8371,628.8559Z" transform="translate(-1711.8225 -446.1622)"/><path class="o" d="M3073.16,603.0688s-2.2563,16.8582,7.4881,38.9619,24.3379,29.997,38.218,25.41,31.8439-31.03,34.8411-52.7588-6.7435-41.9591-24.7266-49.8266S3073.16,565.98,3073.16,603.0688Z" transform="translate(-1711.8225 -446.1622)"/><path class="u" d="M3134.0122,597.498s-41.0792,4.69-60.5137-.3329a50.1939,50.1939,0,0,0-.3388,5.9037s-1.6216,12.1191,3.8243,29.2792a72.8337,72.8337,0,0,0,8.1644-1.8524C3116.9923,621.3577,3134.0122,597.498,3134.0122,597.498Z" transform="translate(-1711.8225 -446.1622)"/><path class="j" d="M3119.24,550.2446s-22.3173-.3745-34.7609,7.8675-20.3106,21.7291-17.6887,36.34l10.49,6.7434h41.96l14.7711-4.4953,20.2319.749s3.5843-18.3568-3.1592-29.2216S3133.851,550.2446,3119.24,550.2446Z" transform="translate(-1711.8225 -446.1622)"/><path class="v" d="M3151.0842,568.2273a42.9187,42.9187,0,0,0-4.968-6.558c-.9007,3.7032-3.6066,9.05-10.6088,16.052-11.21,11.21-50.4006,11.58-69.22,11.069a31.8051,31.8051,0,0,0,.5039,5.6615l10.49,6.7434H3119.24l14.7718-4.4953,20.2312.749S3157.8277,579.0921,3151.0842,568.2273Z" transform="translate(-1711.8225 -446.1622)"/><path class="h" d="M3089.2693,550.2424s23.6542,1.1263,33.5561,16.4864,12.8983,34.4664,12.8983,34.4664l10.116-1.4982s-7.9325-47.5788-32.2511-53.5732Z" transform="translate(-1711.8225 -446.1622)"/><path class="j" d="M3130.2674,1251.8858s.8725,5.2058,3.0529,14.0747a37.8,37.8,0,0,1,0,16.9672s-90.7055-1.1571-94.1938-4.2419-.9818-13.4,0-14.2673,12.6464-3.2781,18.7515-6.5555,27.0371-15.81,33.7961-14.8462,9.5936,6.17,22.4585,7.5194S3127.2145,1249.1866,3130.2674,1251.8858Z" transform="translate(-1711.8225 -446.1622)"/><path class="h" d="M3039.1265,1278.6858c3.4883,3.0848,94.1938,4.2419,94.1938,4.2419a37.9521,37.9521,0,0,0,.8145-12.0467c-47.74,5.9068-95.0083-6.4625-95.0083-6.4625C3038.1447,1265.2858,3035.6373,1275.6009,3039.1265,1278.6858Z" transform="translate(-1711.8225 -446.1622)"/><path class="w" d="M3134.1348,1270.881c-32.6308,4.4991-68.2931.9862-95.0083-6.4625,48.7842,10.3954,88.8282,7.0236,86.0651,7.1366C3125.312,1271.5462,3134.7346,1270.8357,3134.1348,1270.881Z" transform="translate(-1711.8225 -446.1622)"/><path class="j" d="M3168.8258,1251.1582s-1.1764,5.1449-3.8749,13.8712a37.8063,37.8063,0,0,0-.9973,16.9374s90.6163,4.1781,94.28,1.3043,1.7672-13.32.839-14.2435-12.4316-4.0153-18.3338-7.6464-26.0606-17.373-32.865-16.8082-9.94,5.5953-22.8612,6.1861S3172.0318,1248.6426,3168.8258,1251.1582Z" transform="translate(-1711.8225 -446.1622)"/><path class="h" d="M3258.2337,1283.2711c-3.6638,2.8738-94.28-1.3043-94.28-1.3043a37.9487,37.9487,0,0,1-.1055-12.0742c47.3106,8.704,95.2246-.865,95.2246-.865C3260.0009,1269.9514,3261.8975,1280.3965,3258.2337,1283.2711Z" transform="translate(-1711.8225 -446.1622)"/><path class="w" d="M3163.8481,1269.8926c32.3106,6.4106,68.1169,5,95.2246-.865-49.3111,7.51-89.0876,1.7888-86.3357,2.0645C3172.6167,1271.0758,3163.2521,1269.8124,3163.8481,1269.8926Z" transform="translate(-1711.8225 -446.1622)"/><path class="m" d="M3139.6268,764.6569a1.2725,1.2725,0,0,1-1.004-.49c-.324-.4136-7.9273-10.2319-7.9273-19.2885,0-9.3483,12.5476-12.9593,12.5476-19.99,0-11.3924-15.2022-12.1508-1.5273-37.8182a1.2761,1.2761,0,0,1,2.2526,1.2c-.055.1025-5.4043,10.2319-5.4043,17.2652,0,6.9151,7.231,11.0385,7.231,19.3531,0,8.6058-12.5476,12.0133-12.5476,19.99,0,8.17,7.3106,17.6212,7.3856,17.716a1.2772,1.2772,0,0,1-1.0063,2.0622Z" transform="translate(-1711.8225 -446.1622)"/><path class="m" d="M3112.43,745.413c-9.349-20.2765,10.8562-17.2741,2.3774-43.3108-3.1369-9.6348,1.2507-16.158,1.4395-16.4311a1.276,1.276,0,0,1,2.1031,1.4455c-7.4153,10.8985,7.5312,22.88-2.2963,39.0715-4.1922,6.9111-4.92,10.3181-1.3065,18.1559A1.276,1.276,0,0,1,3112.43,745.413Z" transform="translate(-1711.8225 -446.1622)"/><path class="o" d="M3196.6231,853.8869s-12.0638,11.788-27.7535,16.8921c-16.3741,5.3262-14.6084,21.97-6.6127,29.9651s13.7055,9.07,18.0909,6.3957c11.5079-7.0185,34.4584-41.1461,34.4584-41.1461Z" transform="translate(-1711.8225 -446.1622)"/><path class="k" d="M3259.3537,788.5137c-4.4955-38.2132-55.0715-103.025-55.0715-103.025l-15.36,71.93s25.85,30.3453,27.3484,44.0607-21.3541,45.1027-23.6022,50.7218,14.2361,22.4785,16.8587,22.4785C3226.589,874.68,3263.85,826.7264,3259.3537,788.5137Z" transform="translate(-1711.8225 -446.1622)"/><path class="h" d="M2939.4762,688.7237s21.476-7.1589,26.4322-2.2028,41.36,42.6206,40.382,46.2554c-.3024,1.1229-16.37,8.4672-25.1806,6.9987S2929.8567,692.6688,2939.4762,688.7237Z" transform="translate(-1711.8225 -446.1622)"/><path class="l" d="M2949.6843,688.7237a98.8749,98.8749,0,0,1,14.025-3.4282c-7.2443-2.2347-24.2331,3.4282-24.2331,3.4282-9.62,3.9451,32.8234,49.5829,41.6343,51.0513a24.66,24.66,0,0,0,8.678-.525C2978.4693,733.93,2940.5367,692.4752,2949.6843,688.7237Z" transform="translate(-1711.8225 -446.1622)"/><path class="o" d="M2954.76,716.7454s-5.781,8.947,18.3666,19.232c4.0533,1.7261,9.8567-23.0109,7.3782-25.489s-10.0714,17.3124-11.03,16.8435c-3.3539-1.6395,12.0363-20.7562,7.5647-22.3214-4.11-1.4387-13.2678,16.0223-14.2725,15.0175-1.6022-1.6019,13.5643-17.1414,7.2288-18.4821C2967.6949,701.0591,2958.2345,708.538,2954.76,716.7454Z" transform="translate(-1711.8225 -446.1622)"/><path class="j" d="M3066.7908,594.4518l-31.8439,21.0107s18.3569,12.3321,50.2015,5.5886S3134.0115,596.7,3134.0115,596.7,3080.6522,601.1952,3066.7908,594.4518Z" transform="translate(-1711.8225 -446.1622)"/><path class="h" d="M3160.8249,610.5613a17.9827,17.9827,0,1,1-17.9832-17.9827A17.9827,17.9827,0,0,1,3160.8249,610.5613Z" transform="translate(-1711.8225 -446.1622)"/><path class="h" d="M3158.4445,608.76c0,8.672-6.0575,15.702-13.5293,15.702s-13.5286-7.03-13.5286-15.702,6.0568-15.7016,13.5286-15.7016S3158.4445,600.0879,3158.4445,608.76Z" transform="translate(-1711.8225 -446.1622)"/><path class="t" d="M3178.7352,907.8845c-26.3348-8.9195-31.3185-35.6623-24.445-61.7957l-81.2026-6.5658a1.914,1.914,0,1,0-.3091,3.8154l76.7027,6.2017c-2.0318,9.9079-7.7883,49.84,28.0247,61.97a1.9143,1.9143,0,1,0,1.2293-3.6259Z" transform="translate(-1711.8225 -446.1622)"/><path class="n" d="M3150.1527,1593.0737h-568.431a21.721,21.721,0,0,1-21.72-21.7212v-.3025h590.1515a11.0118,11.0118,0,0,1,11.0116,11.0115h0A11.0118,11.0118,0,0,1,3150.1527,1593.0737Z" transform="translate(-1711.8225 -446.1622)"/><path class="p" d="M2703.5408,783.92s-42.0831-10.81-47.1021,33.9756,17.76,51.735,5.4054,73.3559-26.2538,5.4051-28.9566,66.7927,150.5729,96.135,174.896,50.1908,47.8917-25.3375,67.9512-33.9753c36.0985-15.5444,29.251-94.4235-19.01-90.1767s-71.1763,6.7278-65.3851-29.5639-10.7507-67.1-32.7576-80.2265S2708.56,761.1409,2703.5408,783.92Z" transform="translate(-1711.8225 -446.1622)"/><path class="x" d="M2586.8506,1540.4993s.7633,11.6766-5.1865,18.3145-28.082,10.1576-31.0562,17.71c-2.9741,7.5536,22.3013,8.0188,30.7968,5.7075s30.5671-4.1349,36.0933-4.4374-7.105-37.0245-8.2384-38.04S2586.8506,1540.4993,2586.8506,1540.4993Z" transform="translate(-1711.8225 -446.1622)"/><path class="o" d="M2716.12,1533.2668s-5.4815,24.6545-4.9613,34.1722,12.1046,24.2807,21.0082,23.7932,16.2763-6.4321,14.1038-18.0143-8.9132-39.1187-8.9132-39.1187Z" transform="translate(-1711.8225 -446.1622)"/><path class="s" d="M2782.1365,1116.963s5.6808-187.8059-3.2361-196.7224c-3.5717-3.572-32.7588-13.2075-52.7056-16.4871a234.453,234.453,0,0,0-53.2322-2.8062s-30.4173,36.453-30.4173,49.9816-1.9427,167.4833-1.9427,167.4833c-23.5438,8.6772-59.9756,164.634-62.7056,204.8147s3.1762,227.0777,3.1762,227.0777l34.2845-3.7218c18.7188-29.3527,27.1493-183.93,32.619-203.1693,7.5483-26.5526,42.995-107.8592,42.995-107.8592l18.26-7.9623s-4.2275,122.5575-2.6832,150.803-.2144,165.0621-.2144,165.0621l34.3854-1.88c26.922-48.2767,46.1528-271.0374,45.5152-282.7036s11.2493-30.7923,13.7348-64.1849C2801.9307,1168.3365,2782.1365,1116.963,2782.1365,1116.963Z" transform="translate(-1711.8225 -446.1622)"/><rect class="j" x="949.1473" y="665.9732" width="60.9904" height="6.4581"/><path class="y" d="M973.4039,664.3724h11.7528a3.9175,3.9175,0,0,1,3.9175,3.9175v2.8163a3.918,3.918,0,0,1-3.918,3.918H973.4035a3.9176,3.9176,0,0,1-3.9176-3.9176V668.29A3.918,3.918,0,0,1,973.4039,664.3724Z"/><path class="z" d="M2782.1365,1116.963s5.0446-166.7821-1.8371-193.4636c-8.9284-6.0148-37.3269-16.6543-44.2826-17.2028,1.2675,13.7133-11.1753,90.8437-23.9422,130.45-8.06,25.0067-6.8676,55.6779-3.8251,79.5141h-.013a325.3506,325.3506,0,0,0,8.1485,41.6529c.7338.2237,19.6663,10.382,52.5588,10.3842,1.4068-.0772,13.727-.8992,27.8063-3.0923C2791.55,1141.3953,2782.1365,1116.963,2782.1365,1116.963Z" transform="translate(-1711.8225 -446.1622)"/><path class="z" d="M2681.06,1159.78c.7239-2.3744-4.8711-29.4939-6.6182-43.52h-.0376c-11.564-93.9219-1.1518-213.5346-.9928-215.35l-.0208.0015c-.7008.6874-2.6844,2.9255-5.3292,6.1311-8.1641,10.4032-23.81,31.4972-25.3828,42.2441-.0272.3214-.0458.6368-.0458.94q0,.136,0,.29c-.0029,1.6951-.0289,5.0713-.0732,9.7346-.007.9071-.0452,1.8569-.1081,2.8411-.3886,39.6059-1.8486,155.3193-1.8486,155.3193-7.6044,2.8032-16.5532,20.9728-25.2769,45.6407C2643.657,1165.8268,2679.0584,1166.3448,2681.06,1159.78Z" transform="translate(-1711.8225 -446.1622)"/><path class="k" d="M2815.4314,1141.4733c.0527,23.55-63.3389,25.2126-93.4712,11.6841l3.28-102.08,10.3386-145.3942s38.0856,7.5546,51.0505,16.37c0,0,4.2048,151.1626,7.8943,181.91S2815.4069,1130.7376,2815.4314,1141.4733Z" transform="translate(-1711.8225 -446.1622)"/><path class="k" d="M2639.4626,909.1905s-14.8741,120.3682-14.8741,151.7305-5.9382,85.4721-5.9382,85.4721,32.0813,12.2986,54.4743,6.7643c0,0-21.2675-120.7491-21.2675-128.6329s21.5566-123.66,21.5566-123.66S2652.9436,901.9621,2639.4626,909.1905Z" transform="translate(-1711.8225 -446.1622)"/><polygon class="aa" points="907.744 1102.715 866.143 1105.421 866.092 1094.66 909.405 1092.292 907.744 1102.715"/><polygon class="b" points="1033.563 1095.782 992.3 1098.487 992.064 1087.773 1035.377 1085.405 1033.563 1095.782"/><path class="ab" d="M2615.1556,1556.5271c-3.2819,4.1469-13.9857,12.6375-45.3168,8.8838-8.1569,3.2907-17.3848,6.4247-19.2309,11.1125-2.9741,7.5536,22.3013,8.0188,30.7968,5.7068s30.5671-4.1342,36.0933-4.4367C2620.5093,1577.6286,2618.1293,1566.65,2615.1556,1556.5271Z" transform="translate(-1711.8225 -446.1622)"/><path class="ac" d="M2711.1583,1567.439c.52,9.517,12.1046,24.2807,21.0082,23.7932s16.2763-6.4321,14.1038-18.0151c-.7314-3.8979-1.98-9.6039-3.3153-15.4593-1.1352,7.2258-4.4921,19.5237-13.9945,15.2683-10.2844-4.6047-14.83-15.2928-16.6313-19.4612A79.0819,79.0819,0,0,0,2711.1583,1567.439Z" transform="translate(-1711.8225 -446.1622)"/><path class="ad" d="M2622.3107,1106.9727c12.0371-.6117,27.3411-1.3838,42.4147-2.1277-.897-5.2186-1.8163-10.5879-2.7308-15.96l-38.5424,2.0452C2623.1174,1096.26,2622.7243,1101.7118,2622.3107,1106.9727Z" transform="translate(-1711.8225 -446.1622)"/><path class="ad" d="M2782.7726,1112.1354a25.6577,25.6577,0,0,0,12.5067-3.2506c-1.07-5.6243-1.6743-14.2361-2.1885-22.08h-80.4476c.1188,5.3575.4228,10.6414.852,15.7462,5.2616-.2207,8.9339-.3493,10.31-.3493C2733.1559,1102.2015,2769.5525,1112.1354,2782.7726,1112.1354Z" transform="translate(-1711.8225 -446.1622)"/><rect class="j" x="2780.9302" y="1086.8966" width="8.7116" height="102.7138" transform="translate(-1731.36 -397.1305) rotate(-1.0051)"/><path class="z" d="M2744.5012,1225.422l2.5527,40.7655s15.11,11.6551,38.1555,11.4745c.8257-10.6771,1.2122-17.6658,1.1126-19.49-.2858-5.2222,1.9382-11.94,4.7053-20.761Z" transform="translate(-1711.8225 -446.1622)"/><path class="k" d="M2639.7257,909.4536s-11.2542,2.3669-27.1393,55.59-5.33,121.6,5.6317,128.6979,117.4182,4.47,117.4182,4.47l.412-38.3458s-80.5924-12.593-88.57-22.3786c-1.96-2.4037,1.405-12.704.7034-24.4186C2646.0281,977.099,2639.7257,909.4536,2639.7257,909.4536Z" transform="translate(-1711.8225 -446.1622)"/><path class="o" d="M2643.6671,1031.8357s-11.0148-7.5843-15.1517-12.6583-12.4161-11.8992-12.7839-8.28,3.4219,8.8311,3.4219,8.8311-15.05-10.5128-17.0434-8.8875-3.97,12.89-2.5772,25.3293,36.6725,21.4931,36.6725,21.4931Z" transform="translate(-1711.8225 -446.1622)"/><path class="j" d="M2780.6679,1261.4758l-3.1837.3241c-18.1755,2.526-31.3448-4.6426-31.7-11.5131l-3.3264-64.43,35.3285-3.5954a14.4942,14.4942,0,0,1,15.3051,10.1085l16.46,52.8286C2811.7207,1252.1618,2798.3932,1259.673,2780.6679,1261.4758Z" transform="translate(-1711.8225 -446.1622)"/><path class="y" d="M2745.4918,1248.5031l-5.09-62.437,5.6005-.57a13.3457,13.3457,0,0,1,14.4732,10.8472l9.0718,48.9983C2772.4972,1261.2745,2746.8083,1264.6529,2745.4918,1248.5031Z" transform="translate(-1711.8225 -446.1622)"/><polygon class="j" points="1028.953 747.525 930.004 461.004 937.454 458.236 1036.404 744.758 1028.953 747.525"/><path class="k" d="M2784.3853,1104.1687c-38.3844,6.4046-119.3931-22.12-152.2432-32.4421l12.3134-42.6183s96.75,26.7665,109.427,21.0773c6.2664-2.8121,22.325-32.6093,28.2146-62.916,6.0255-31.0026,4.5318-65.2171,4.5318-65.2171s27.7932,36.3585,19.961,113.3337C2800.613,1094.1226,2801.2759,1101.3506,2784.3853,1104.1687Z" transform="translate(-1711.8225 -446.1622)"/><path class="o" d="M2774.6733,1016.7049s-9.0614,7.6679-16.1286,13.43-18.1429,21.2441-18.1429,21.2441,13.1429,3.1213,17.7483,3.59,19.7544-7.96,25.0179-7.4246,3.73-7.2648-2.7207-5.9271-12.8349,2.0177-12.8349,2.0177,15.1354-9.9265,22.2025-15.6882,1.3473-10.12-4.4353-5.4065a56.663,56.663,0,0,1-12.0515,7.3848s20.3631-17.2047,17.4079-20.829S2774.6733,1016.7049,2774.6733,1016.7049Z" transform="translate(-1711.8225 -446.1622)"/><path class="ae" d="M2801.8556,1220.4992a24.2144,24.2144,0,0,1-10.0561,7.5773c-15.4337,6.1549-37.1148-19.2026-37.3322-19.459l-1.0117.8569c.8085.9557,17.8734,20.9022,33.1,20.9022a15.37,15.37,0,0,0,5.7354-1.0679,25.33,25.33,0,0,0,10.0349-7.3009Z" transform="translate(-1711.8225 -446.1622)"/><path class="o" d="M2722.4109,860.4656s-1.9132,30.4352,0,37.392a9.95,9.95,0,0,0,3.112,4.8c7.2132,6.4-15.9906,71.6035-23.0061,69.1482-7.5655-2.6479-21.204-46.8651-25.5883-61.206a8.0748,8.0748,0,0,1,5.2568-10.1223l.0509-.0153c7.0935-2.0677,9.6072-57.9909,9.6072-57.9909Z" transform="translate(-1711.8225 -446.1622)"/><path class="q" d="M2696.5793,840.8929s-.0624,1.3882-.1955,3.7351a36.3825,36.3825,0,0,0,1.8412,13.84c7.0266,20.534,19.06,32.3934,28.4487,35-1.069-10.0491.4731-34.5806.4731-34.5806Z" transform="translate(-1711.8225 -446.1622)"/><path class="o" d="M2692.4254,818.9721s5.463-21.8512,22.079-27.9968,31.5689-.9108,36.8041,20.7131-3.7994,55.5389-14.0421,65.7816S2692.5379,869.3881,2692.4254,818.9721Z" transform="translate(-1711.8225 -446.1622)"/><path class="o" d="M2697.2054,826.0285s-7.9667-12.9745-13.202-5.6908-1.1381,25.0383,8.422,26.1765S2697.2054,826.0285,2697.2054,826.0285Z" transform="translate(-1711.8225 -446.1622)"/><path class="o" d="M2982.45,1529.48s.0921.96.0921,2.5624c.0015,4.81-.8248,15.4065-7.4509,23.2268-8.8355,10.4266-8.8883,23.3978.4466,25.6139s31.5935-.7089,31.5935-.7089,5.0326-9.92,1.5955-36.4158-5.43-55.556-5.43-55.556l-25.3635-4.4925Z" transform="translate(-1711.8225 -446.1622)"/><path class="af" d="M2977.48,1540.7445s-9.4085,14.4829-11.61,20.5263-1.7279,21.0716,0,22.62c15.2141,13.6252,44.0585,1.3622,44.0585,1.3622a219.2415,219.2415,0,0,0,2.9845-22.254c1-12.263.437-23.69-2.9845-23.69s-4.022,6.4314-11.829,4.6151S2985.4875,1538.9275,2977.48,1540.7445Z" transform="translate(-1711.8225 -446.1622)"/><path class="d" d="M3012.3217,1569.106c-5.8643,2.5988-13.8258,5.6368-21.2292,6.8363-7.9021,1.2805-18.542-2.71-26.57-6.72-.4154,6.4246.1792,13.6229,1.3467,14.6685,15.2141,13.6252,44.0585,1.3622,44.0585,1.3622S3011.2858,1578.4126,3012.3217,1569.106Z" transform="translate(-1711.8225 -446.1622)"/><path class="o" d="M2909.2478,1512.0123c3.2921,11.7413.0379,24.6686-8.4016,32.4257a43.9683,43.9683,0,0,1-10.1233,7.0854c-14.7742,7.3261-33.9107,5.6793-36.5786,20.7283s93.6856-4.2226,93.6856-4.2226-6.6848-36.6046-7.1173-42.7349.5886-28.6461.5886-28.6461l-37.21-3.0306Z" transform="translate(-1711.8225 -446.1622)"/><path class="af" d="M2943.9171,1542.1254s1.1779,5.8123,3.8763,15.6673a48.2852,48.2852,0,0,1,1.0152,19.135s-90.2484,4.85-93.9018,1.6075-1.7769-15.0461-.8532-16.091,12.3767-4.5549,18.2507-8.666,25.9349-19.665,32.7126-19.0362,9.9072,6.3072,22.778,6.9567S2940.72,1539.2887,2943.9171,1542.1254Z" transform="translate(-1711.8225 -446.1622)"/><path class="d" d="M2854.9068,1578.5352c3.6534,3.2424,93.9018-1.6075,93.9018-1.6075a48.526,48.526,0,0,0,.0892-13.6415c-47.11,9.9-94.8442-.842-94.8442-.842C2853.13,1563.4891,2851.2541,1575.2927,2854.9068,1578.5352Z" transform="translate(-1711.8225 -446.1622)"/><path class="ag" d="M2948.8978,1563.2862c-32.1731,7.2882-67.8376,5.7462-94.8442-.842,49.1232,8.4149,88.7339,1.8943,85.9931,2.2094C2940.1664,1564.6351,2949.4916,1563.194,2948.8978,1563.2862Z" transform="translate(-1711.8225 -446.1622)"/><path class="h" d="M3019.7273,1152.1481l-8.4795,370.6557-40.5656-5.82s-12.8531-297.44-20.3761-306.2552-10.5329.5544-10.5329.5544-32.3521,123.7466-26.3332,148.4308,32.8776,156.9192,32.8776,156.9192l-38.8965,1.7636s-44.39-101.3811-44.39-171.9067,27.4257-187.7739,27.4257-187.7739Z" transform="translate(-1711.8225 -446.1622)"/><rect class="ac" x="1189.2125" y="1061.1064" width="46.8432" height="10.9075"/><rect class="ac" x="1255.7235" y="1062.8656" width="47.2928" height="13.776"/><path class="ac" d="M3002.529,1514.4417a1.0082,1.0082,0,0,1-.2631-.035,1.4248,1.4248,0,0,1-.91-1.6795c7.49-39.2525,7.9749-294.3028,7.9787-296.8743a1.3148,1.3148,0,0,1,1.2009-1.4045h.0022a1.3176,1.3176,0,0,1,1.1987,1.41c-.0163,10.5121-.4882,257.93-8.0365,297.4821A1.2606,1.2606,0,0,1,3002.529,1514.4417Z" transform="translate(-1711.8225 -446.1622)"/><path class="ac" d="M2939.7212,1514.4417a1.225,1.225,0,0,1-1.1267-.9223c-1.8222-5.819-44.57-142.7173-42.15-161.62,2.3855-18.6319,29.6953-135.9991,30.8569-140.9865a1.1958,1.1958,0,0,1,1.4753-.9869,1.4485,1.4485,0,0,1,.8419,1.7286c-.2838,1.2188-28.4342,122.1941-30.7982,140.6625-2.3306,18.1979,41.5846,158.8158,42.0282,160.2322a1.4839,1.4839,0,0,1-.7127,1.806A1.04,1.04,0,0,1,2939.7212,1514.4417Z" transform="translate(-1711.8225 -446.1622)"/><polygon class="b" points="1185.827 446.429 1129.204 521.125 1195.919 545.46 1185.827 446.429"/><path class="c" d="M3045.0306,868.4658c-8.6035-8.6036-28.6311-14.922-41.6871-18.3086a59.6026,59.6026,0,0,0-22.98-1.351l-29.3833,3.9844s-38.1659,24.5352-52.4777,38.8471S2871.2416,995.57,2871.2416,995.57l6.4863,34.15-7.4644,150.35c3.2848,0,101.8322,12.0445,156.58-4.38,0,0,0-80.19,1.51-128.89C3034.7831,1009.8143,3056.4174,879.8526,3045.0306,868.4658Z" transform="translate(-1711.8225 -446.1622)"/><path class="b" d="M3044.4294,867.8854c-4.51-4.2093-11.4574-7.597-17.14-9.948l-.006.0085s-10.848-5.9479-20.6956,34.6453,2.6576,89.9794-1.7063,94.3436-100.2291-.5815-100.2291-.5815,56.013,32.1932,83.35,55.6616c10.9632,9.4114,40.038,14.3557,40.0915,14.0458.081-3.1875.168-6.2828.26-9.26C3031.4575,1028.9429,3057.6213,880.19,3044.4294,867.8854Z" transform="translate(-1711.8225 -446.1622)"/><path class="j" d="M2802.5717,953.417l48.1377,90.9563a6.1313,6.1313,0,0,0,5.7744,3.2736l57.1887-3.3736a6.22,6.22,0,0,0,5.4266-8.3209l-29.494-83.0318a6.1555,6.1555,0,0,0-5.42-4.1068l-75.8326-4.5507A6.2181,6.2181,0,0,0,2802.5717,953.417Z" transform="translate(-1711.8225 -446.1622)"/><path class="ah" d="M2923.6257,1035.4977l-29.8677-82.2583a6.2171,6.2171,0,0,0-5.489-4.0689l-2.9616-.1739a6.2246,6.2246,0,0,1,3.76,3.753l29.8678,83.0323a6.2263,6.2263,0,0,1-4.4389,8.1689l3.6348-.21A6.1706,6.1706,0,0,0,2923.6257,1035.4977Z" transform="translate(-1711.8225 -446.1622)"/><path class="o" d="M3031.4,979.1l-4.5437,16.3407s-96.7764-24.9733-108.1349-30.4256c-9.1915-4.4121-45.7181-14.1795-59.321-13.232a1.9274,1.9274,0,0,0-.344,3.7976c8.5612,2.06,25.5886,6.3707,25.5886,8.0715,0,2.2715-17.1418,5.6161-15.903,8.4052,2.4993,5.6228,10.9052,8.86,12.4957,14.0852s18.987,1.1348,24.9413,1.1348,116.3617,67.0178,149.7566,51.1156,13.1763-86.44,13.1763-86.44Z" transform="translate(-1711.8225 -446.1622)"/><path class="o" d="M2849.9261,1014.0856c-2.2146-2.215-2.1017-7.6672-4.6567-10.223-2.5565-2.5557-5.3388,2.6126-6.02-3.18s3.4075-14.7667-.5677-14.3123-9.4286,16.8112-9.4286,16.8112c-2.8626,6.6739,9.9963,31.5774,16.8,29.88s9.439-9.7752,9.439-13.5234S2852.1415,1016.3006,2849.9261,1014.0856Z" transform="translate(-1711.8225 -446.1622)"/><path class="j" d="M2950.9578,852.8044l-.0089.0055c-.0274.0182-.0742.0484-.14.09l-.0639.0412c-.0342.022-.0713.0465-.113.0733-.0252.0163-.0512.0334-.0787.0509-.0684.0442-.1442.0936-.2289.1483-.03.0192-.061.0393-.0922.06q-.1281.0824-.2749.1783c-.0156.01-.0305.02-.0461.03-.0253.0164-.0506.0328-.0758.05l-.0632.0405c-.0483.0316-.0989.0643-.15.0978l-.0765.05q-.28.1828-.6094.3977l-.12.0787c-3.6252,2.37-11.3823,7.4993-19.986,13.5468v0s-3.5783,14.3528-1.8742,23.5532,5.2816,12.0972,10.3931,10.0528,14.71-15.6674,16.8967-14.9046,17.01,19.3346,24.1654,16.4381c4.812-1.9475,19.2428-33.54,26.4708-52.3214q-.7836-.2085-1.5384-.4039a59.595,59.595,0,0,0-22.98-1.3514l-29.384,3.984-.01.0071Z" transform="translate(-1711.8225 -446.1622)"/><path class="ai" d="M2928.83,835.7524l6.4745,32.3723s6.1333,18.4015,18.06,18.4015,31.2859-38.3012,31.2859-38.3012l-27.91-36.667Z" transform="translate(-1711.8225 -446.1622)"/><path class="o" d="M2928.83,835.7524l6.4745,32.3723s6.1333,18.4015,18.06,18.4015,31.2859-38.3012,31.2859-38.3012l-27.91-36.667Z" transform="translate(-1711.8225 -446.1622)"/><path class="aj" d="M2963.5366,820.4867l-6.7962-8.9287-27.91,24.1944,3.4907,17.4511A39.1842,39.1842,0,0,0,2963.5366,820.4867Z" transform="translate(-1711.8225 -446.1622)"/><path class="o" d="M2899.5242,763.34s-5.4519,73.7755,16.0159,80.42,48.389-9.2,48.389-34.0763S2954.3868,734.8864,2899.5242,763.34Z" transform="translate(-1711.8225 -446.1622)"/><path class="t" d="M2919.2886,746.6425s-40.5507-8.3487-41.9137,3.4078,12.393,19.2532,21.531,19.2532,32.2244-3.1521,39.9771,4.6,23.63,45.2687,23.63,45.2687l8.0685,10.57s1.1847-20.5693,10.385-33.859,1.6335-34.1923-9.4411-47.9928S2928.3188,746.6425,2919.2886,746.6425Z" transform="translate(-1711.8225 -446.1622)"/><path class="o" d="M2948.6422,793.3549s2.902-10.5158,8.6043-9.5381c12.9385,2.2187,5.5522,25.5354,1.4455,26.5034C2950.3462,812.2878,2946.3636,805.9058,2948.6422,793.3549Z" transform="translate(-1711.8225 -446.1622)"/><path class="d" d="M3009.16,899.8259c-.4206,24.2368,12.6992,95.7449,12.6992,95.7449s50.8875-1.0227,54.9764-5.1115-9.0168-111.9968-31.4916-127.1187C3018.5011,845.2791,3009.5661,876.44,3009.16,899.8259Z" transform="translate(-1711.8225 -446.1622)"/><path class="j" d="M2958.4,946.58a8.83,8.83,0,0,1-5.6391-1.8846c-2.2042-1.823-3.322-4.8191-3.322-8.9054,0-11.619,2.0645-42.9348,2.0861-43.25a.7966.7966,0,0,1,.8323-.7283.7821.7821,0,0,1,.7283.832c-.0215.3147-2.0831,31.5793-2.0831,43.1466,0,3.5911.923,6.1784,2.7431,7.6911a7.88,7.88,0,0,0,5.8724,1.4443.7819.7819,0,0,1,.2921,1.5362A8.7225,8.7225,0,0,1,2958.4,946.58Z" transform="translate(-1711.8225 -446.1622)"/><path class="j" d="M2960.3217,899.2711a1.7907,1.7907,0,1,1-1.791-1.7906A1.791,1.791,0,0,1,2960.3217,899.2711Z" transform="translate(-1711.8225 -446.1622)"/><path class="j" d="M2960.3217,916.9926a1.7907,1.7907,0,1,1-1.791-1.7906A1.791,1.791,0,0,1,2960.3217,916.9926Z" transform="translate(-1711.8225 -446.1622)"/><path class="j" d="M2960.3217,934.9746a1.7907,1.7907,0,1,1-1.791-1.7907A1.7908,1.7908,0,0,1,2960.3217,934.9746Z" transform="translate(-1711.8225 -446.1622)"/><path class="ak" d="M2491.9378,1203.7235s-18.1065-1.2073-43.1541,23.84-16.5979,108.3375-46.7755,120.4087-27.7636,44.0593-6.0357,57.3374,2.4145,22.9355,29.5743,57.0364,160.0542,80.8013,181.7822,37.0438,32.6917-34.2451,58.9462-47.8241c26.2546-13.5806,26.0424-81.8656-26.7687-115.0613s-28.0648-71.8224-59.45-108.0357S2491.9378,1203.7235,2491.9378,1203.7235Z" transform="translate(-1711.8225 -446.1622)"/><path class="ak" d="M2571.2171,1284.5c-13.0043-55.6121-128.919-47.0475-135.4024-13.7816-3.0116,15.4515-5.3325,44.8162-3.3272,60.4308,2.9957,23.3242,7.1471,37.1025,28.801,50.96,8.1024,5.1851,14.3851,13.7612,13.2741,22.7639-9.2048,74.6055,63.6041,85.8511,91.2952,65.7931,36.47-60.9083,12.1972-113.9435,2.1-147.0708C2562.0933,1304.3525,2574.4183,1298.1857,2571.2171,1284.5Z" transform="translate(-1711.8225 -446.1622)"/><path class="o" d="M2398.0854,1546.5417s-50.6987,103.8111-50.6987,138.8172,16.5521,48.3205,30.593,47.2289c22.83-1.7755,72.6147-144.65,72.6147-144.65Z" transform="translate(-1711.8225 -446.1622)"/><path class="q" d="M2450.5944,1587.9375c-3.8456-3.0322-34.5862-27.266-38.8118-30.5969-3.7931,22.0393-6.9077,43.6557-6.9077,55.22,0,7.6739,7.8846,31.8387,15.9119,51.8394,16.2274-37.4889,29.8072-76.462,29.8072-76.462Z" transform="translate(-1711.8225 -446.1622)"/><path class="k" d="M2459.6688,1454.335s-29.7307,8.1146-54.9448,33.3287-33.7987,105.3518-33.7987,105.3518-3.6215,12.0712,67.5982,19.3133S2459.6688,1454.335,2459.6688,1454.335Z" transform="translate(-1711.8225 -446.1622)"/><path class="al" d="M2459.6688,1454.335s-.026.0067-.0751.0208c-8.1488,2.4829-31.6443,11.4819-34.3487,33.3079,0,0-18.403,86.1194-20.2248,120.0411,8.7444,1.641,19.7225,3.2224,33.503,4.624C2509.7429,1619.5717,2459.6688,1454.335,2459.6688,1454.335Z" transform="translate(-1711.8225 -446.1622)"/><path class="o" d="M2359.7622,1633.7811c-17.9084-23.5926-83.78-94.567-89.6829-105.5206s-26.819,26.146-24.8206,27.3872c5.5957,3.4765,84.6064,208.9251,136.555,175.2977C2406.466,1714.9874,2377.671,1657.3735,2359.7622,1633.7811Z" transform="translate(-1711.8225 -446.1622)"/><path class="h" d="M2483.79,1712.5194s-27.7632,80.2729-32.5915,140.6282-7.66,146.8524-7.66,146.8524l269.7837-.6882s2.8359-84.6019.4217-162.46-73.03-130.9716-73.03-130.9716Z" transform="translate(-1711.8225 -446.1622)"/><path class="am" d="M2713.7438,1836.8515c-.6391-20.6124-6.0582-39.49-13.6816-56.1067l-162.775,39.8225s-10.912,35.0491,102.7306,46.21c30.178,2.9637,54.7032,3.4951,74.45,2.6768C2714.3134,1858.62,2714.0793,1847.6705,2713.7438,1836.8515Z" transform="translate(-1711.8225 -446.1622)"/><path class="am" d="M2483.79,1712.5194s-1.6959,4.9048-4.3234,13.2007c42.735,17.2972,166.1587,32.3218,199.6141,20.0581-18.86-25.226-38.3666-39.8983-38.3666-39.8983Z" transform="translate(-1711.8225 -446.1622)"/><path class="ac" d="M2558.12,1851.3894l-1.6766-.62c-16.3842-6.06-47.9665-28.61-48.2827-28.8363a2.5157,2.5157,0,0,0-3.7411,1,3.41,3.41,0,0,0,.87,4.3036c1.2764.9141,30.5043,21.7814,47.8126,28.8281l13.8132,143.62,5.4653-.0141Z" transform="translate(-1711.8225 -446.1622)"/><path class="k" d="M2425.245,1487.6637s-7.8463,57.0669-7.8463,86.6419,39.3744,134.1315,49.4914,144.2489c21.3114,21.311,159.64,12.9765,180.4627-7.8462s28.0653-219.9954,3.018-245.043-82.0253-22.8078-82.0253-22.8078l-105.982,10.7373S2428.5239,1461.2018,2425.245,1487.6637Z" transform="translate(-1711.8225 -446.1622)"/><path class="an" d="M2650.37,1465.6653c-6.81-6.81-15.9813-11.6038-25.7265-14.9726l-.052-.0059c-19.1064-2.0363-26.1794,21.447-29.7481,40.3279-9.5832,50.6986,3.873,125.9128,10.26,147.87,3.7214,12.7921,33.1793,30.08,61.1713,23.5724C2673.1878,1595.2331,2667.38,1482.6749,2650.37,1465.6653Z" transform="translate(-1711.8225 -446.1622)"/><path class="o" d="M2623.5515,1583.4064s50.3045,104.0029,77.83,125.63,52.3979,25.9007,58.5773,13.2454c9.2885-19.0243-51.7982-164.9417-51.7982-164.9417Z" transform="translate(-1711.8225 -446.1622)"/><path class="q" d="M2708.1608,1557.3406l-84.6093,26.0658s11.0664,22.88,25.6585,49.4085c21.8323.7506,55.0172-10.81,78.8965-25.4155C2717.3779,1579.3561,2708.1608,1557.3406,2708.1608,1557.3406Z" transform="translate(-1711.8225 -446.1622)"/><path class="ao" d="M2494.7369,1631.7209a3.3857,3.3857,0,0,0,.9865-.82Z" transform="translate(-1711.8225 -446.1622)"/><path class="o" d="M2464.8658,1612.4626c-.8636,7.5907,4.1806,9.6106,15.82,11.5562,15.8636,2.6516,16.1,5.5121,15.0379,6.8817l18.7122-15.57C2503.8767,1609.2529,2465.73,1604.8719,2464.8658,1612.4626Z" transform="translate(-1711.8225 -446.1622)"/><path class="d" d="M2501.0084,1625.9629c-1.9392,17.804-8.3386,27.53-21.1783,31.2233a674.6817,674.6817,0,0,1-53.3915-93.1423c-2.5992-5.619-.8717-6.12,4.1751-2.801,15.2857,9.9911,34.0083,7.6116,43.8946-2.9667,4.7741-4.9175,7.4257-6.762,9.1495-1.6609C2491.2322,1578.8939,2493.4341,1603.6843,2501.0084,1625.9629Z" transform="translate(-1711.8225 -446.1622)"/><path class="o" d="M2679.2777,1658.9044c-17.2511-4.1334-159.848-40.6994-164.8421-43.574l-9.9518,8.2812a76.0377,76.0377,0,0,1-25.8547,14.1639c-.6606.2074-1.286.3924-1.8608.5485-6.1348,1.6684-8.7675-3.9343-11.95-5.7663s-2.1032-10.7505-2.5331-15.2259c-.7391-7.7-9.7311-7.7289-13.3632-1.3466s-1.1081,19.0131-1.1081,19.0131-3.737,4.2034-3.9414,7.9371,2.3592,8.6757,2.3592,8.6757-1.71,8.0655.6054,12.0942,18.1855,13.9336,22.2354,16.2649,30.4355-7.6672,43.3879-8.2c20.0025-.8234,231.3278,83.7762,246.6578,55.3948C2775.7985,1696.2849,2711.6154,1666.6512,2679.2777,1658.9044Z" transform="translate(-1711.8225 -446.1622)"/><path class="k" d="M2624.5919,1450.6868c-19.1068-2.0363-31.7264,21.2151-29.7481,40.3279,3.7637,36.36,21.3756,92.3679,27.7635,114.3254,9.6567,33.1957,120.107-17.153,110.45-45.52S2658.8206,1454.335,2624.5919,1450.6868Z" transform="translate(-1711.8225 -446.1622)"/><path class="o" d="M2482.281,1373.3219s3.3194,52.8108,0,64.882-19.9175,15.3909-19.9175,15.3909-16.5975,54.0177,32.5922,70.9172,73.39-81.6545,73.39-81.6545-13.487.7031-16.3541-.133c-12.3087-3.5887-10.26-83.8877-10.26-83.8877Z" transform="translate(-1711.8225 -446.1622)"/><path class="q" d="M2525.2843,1390.9534c6.1471-3.524,16.5663-21.198,16.5176-24.88-.0595-4.4991-.071-7.2362-.071-7.2362l-59.45,14.4851s.7,11.13,1.1352,24.3378C2496.2815,1401.01,2510.6893,1399.3185,2525.2843,1390.9534Z" transform="translate(-1711.8225 -446.1622)"/><path class="o" d="M2450.5944,1232.6939s-13.1272,9.5062-13.1272,21.2754-7.2429,73.3314,8.6006,99.5866,47.0772,38.9284,79.2165,22.18,50.2457-33.0448,37.1185-89.1753S2494.05,1209.6079,2450.5944,1232.6939Z" transform="translate(-1711.8225 -446.1622)"/><path class="q" d="M2437.4672,1253.9693c0,3.9576-.8194,13.5467-1.3039,25.53,6.8255-.9378,79.0838-10.8413,90.3978-15.946,2.1366,15.4459,16.9805,51.6759,48.2142,61.1825,3.9485-12.4035-6.9838-15.1339-12.3725-38.1749-13.1273-56.13-68.3526-76.9532-111.8084-53.8672C2450.5944,1232.6939,2437.4672,1242.2,2437.4672,1253.9693Z" transform="translate(-1711.8225 -446.1622)"/><path class="ak" d="M2580.0567,1228.469c-11.6228-13.4108-26.7216-20.2813-41.1287-23.6181v-.0008c-37.6624-10.7837-69.2328-6.47-94.28,18.5777-8.9337,8.9335-19.8555,25.5622-13.1541,47.29h4.3208c.3-.0457,81.2-9.492,93.3764-14.2509,2.8553,17.8806,42.5291,71.92,45.4334,76.7188l14.8559-90.9924A72.72,72.72,0,0,0,2580.0567,1228.469Z" transform="translate(-1711.8225 -446.1622)"/><path class="o" d="M2552.7387,1315.1135s.37-25.5389,14.0175-17.2437,9.9086,41.7146-5.4262,38.1251S2552.7387,1315.1135,2552.7387,1315.1135Z" transform="translate(-1711.8225 -446.1622)"/><path class="y" d="M2537.2471,1820.4477c-5.255-15.4348-4.1588-32.3478,7.4412-43.8051,4.4813-4.4256,10.4051-7.6695,15.1246-10.78,8.9435-5.8941,115.8463-29.6047,134.51-23.1689s22.5257,11.2627,27.0311,20.2728,1.609,33.4669-.9657,41.19-92.7251,40.4163-141.2678,37.0066c-38.9374-2.7355-40.5464-16.7338-41.8335-20.5953C2537.2745,1820.5286,2537.2611,1820.4893,2537.2471,1820.4477Z" transform="translate(-1711.8225 -446.1622)"/><path class="d" d="M2720.3885,1804.156c5.0416-6.7576,5.4707-32.18.9657-41.19s-8.3669-13.837-27.0311-20.2728c-13.8831-4.7875-76.5542,7.1619-111.4569,15.9825-18.6036,4.7-31.1356,22.8754-27.6409,41.7428.3534,1.9062,5.3813,23.0642,9.3977,31.0755a17.5173,17.5173,0,0,0,14.3962,9.6611c.0338.0022.0676.0052.1015.0074C2627.6634,1844.5723,2715.5207,1810.681,2720.3885,1804.156Z" transform="translate(-1711.8225 -446.1622)"/><path class="b" d="M2574.5205,1788.2263s23.1681-14.48,50.68-20.7552,77.2268-3.8614,77.2268-3.8614S2635.8193,1783.3994,2574.5205,1788.2263Z" transform="translate(-1711.8225 -446.1622)"/><path class="af" d="M2702.4273,1763.61a467.0265,467.0265,0,0,1-54.6839,15.6072c-25.763,5.463-41.3909,6.4789-61.0009,8.296-2.58.2251-12.1752.71-12.222.7134C2624.6135,1781.8009,2658.3346,1774.2577,2702.4273,1763.61Z" transform="translate(-1711.8225 -446.1622)"/><path class="af" d="M2574.5205,1788.2263a165.82,165.82,0,0,1,29.4932-15.1621c16.0684-6.4261,32.1069-10.4883,65.2836-10.67,11.06-.0527,22.1178.281,33.13,1.2159-23.2581.0045-59.7579.3493-82.0911,6.1667A216.5845,216.5845,0,0,0,2574.5205,1788.2263Z" transform="translate(-1711.8225 -446.1622)"/><path class="af" d="M2571.23,1803.0353c-6.6677,0-10.65-.1642-10.7562-.1687a1.1266,1.1266,0,0,1,.0981-2.2511,426.4678,426.4678,0,0,0,62.4623-2.9124c30.7487-3.7768,71.8722-12.9214,93.1638-35.0358a1.1266,1.1266,0,0,1,1.6231,1.5629c-9.6322,10.0037-23.9247,18.2559-42.4823,24.5282-14.78,4.9955-32.2968,8.7589-52.0624,11.1853A439.4612,439.4612,0,0,1,2571.23,1803.0353Z" transform="translate(-1711.8225 -446.1622)"/><path class="af" d="M2620.6323,1830.0605a1.1275,1.1275,0,0,1-1.0538-.7275l-10.78-28.4789a1.1264,1.1264,0,0,1,2.1069-.7974l10.78,28.4788a1.1261,1.1261,0,0,1-1.0531,1.525Z" transform="translate(-1711.8225 -446.1622)"/><path class="af" d="M2691.4285,1812.3613a1.0483,1.0483,0,0,1-.1368-.0075,1.1265,1.1265,0,0,1-.9828-1.2537l3.8614-31.858a1.1265,1.1265,0,0,1,2.2366.2713l-3.8618,31.858A1.1262,1.1262,0,0,1,2691.4285,1812.3613Z" transform="translate(-1711.8225 -446.1622)"/><path class="af" d="M2698.2724,1761.679h7.5472a.5709.5709,0,0,1,.5709.5709v3.2033a.57.57,0,0,1-.57.57h-7.5482a.57.57,0,0,1-.57-.57v-3.204A.57.57,0,0,1,2698.2724,1761.679Z" transform="translate(-2063.588 275.3558) rotate(-14.2899)"/><path class="af" d="M2698.8869,1764.0489l-1.5462,9.6306a.22.22,0,0,0,.2178.255h4.6313a.2205.2205,0,0,0,.2178-.255l-1.5462-9.6306a.5688.5688,0,0,0-.5618-.4793h-.851A.5688.5688,0,0,0,2698.8869,1764.0489Zm2.17,8.92h-2.3655a.22.22,0,0,1-.2178-.2557l1.1828-7.3684a.2205.2205,0,0,1,.4355,0l1.1828,7.3684A.22.22,0,0,1,2701.0569,1772.9691Z" transform="translate(-1711.8225 -446.1622)"/><path class="af" d="M2699.1569,1763.154h3.3653a.57.57,0,0,1,.57.57v.2007a.57.57,0,0,1-.57.57h-3.364a.5708.5708,0,0,1-.5708-.5708v-.2a.57.57,0,0,1,.57-.57Z" transform="translate(-2059.3985 262.7814) rotate(-14.0594)"/><path class="j" d="M2538.7408,1811.46c-49.8381-3.2157-76.8184-24.2546-77.3044-25.9825-1.6435-5.842,1.3292-21.5511,7.166-23.21.3634-.1033,28.1332,28.6891,71.2814,31.473Z" transform="translate(-1711.8225 -446.1622)"/><path class="o" d="M2318.502,1585.618s9.9023,37.2147-32.277,32.3753c0,0-22.2433-41.03-33.635-47.3783s-47.1073.2452-49.9707-4.0034-13.82-21.7495-14.5308-27.1516,3.6063-13.5887,3.6063-13.5887-.6225-6.5124.8449-10.5448,6.292-7.1195,6.292-7.1195-.071-16.2508,5.4073-21.7837,15.7283-.4994,13.7523,8.3c-1.1482,5.113,2.3677,18.1481,4.6176,21.4864s3.39,6.4,9.5125,7.1032,24.8481,1.927,6.1906-10.8555-23.11-14.1973-19.721-22.21,39.4576,6.98,50.3769,28.6625C2275.1213,1531.1277,2318.502,1585.618,2318.502,1585.618Z" transform="translate(-1711.8225 -446.1622)"/><path class="af" d="M2157.0937,1502.9736l7.6465-29.66c1.5513-6.0167,6.885-9.3906,11.9136-7.5342l48.56,17.9266c5.0286,1.8557,7.8478,8.2388,6.2964,14.2561l-7.6463,29.6591c-1.5514,6.0173-6.8851,9.3906-11.9141,7.5342l-48.56-17.9259C2158.3612,1515.3741,2155.5423,1508.991,2157.0937,1502.9736Z" transform="translate(-1711.8225 -446.1622)"/><polygon class="ac" points="446.162 1053.355 512.933 1078.004 516.607 1063.753 449.836 1039.105 446.162 1053.355"/><path class="o" d="M2218.591,1490.2476c-3.3885,8.0122,1.0638,9.4271,19.721,22.21l16.1055-10.4169C2239.7775,1490.4357,2220.99,1484.5729,2218.591,1490.2476Z" transform="translate(-1711.8225 -446.1622)"/></g></svg>